<svg width="24" height="25" viewBox="0 0 24 25" fill="none" xmlns="http://www.w3.org/2000/svg">
<path fill-rule="evenodd" clip-rule="evenodd" d="M21.9964 8.38685H17.7618C15.7911 8.39031 14.1947 9.94686 14.1911 11.8683C14.1884 13.794 15.7867 15.3575 17.7618 15.3601H22V15.6661C22 19.0253 19.9636 21.0117 16.5173 21.0117H7.48356C4.03644 21.0117 2 19.0253 2 15.6661V8.34958C2 4.99034 4.03644 3.01172 7.48356 3.01172H16.5138C19.96 3.01172 21.9964 4.99034 21.9964 8.34958V8.38685ZM6.73956 8.37905H12.3796H12.3831H12.3902C12.8124 8.37731 13.1538 8.04191 13.152 7.62937C13.1502 7.2177 12.8053 6.8849 12.3831 6.88663H6.73956C6.32 6.88836 5.97956 7.2203 5.97778 7.63024C5.976 8.04191 6.31733 8.37731 6.73956 8.37905Z" fill="#8A92A6"/>
<path opacity="0.4" d="M16.0374 12.3068C16.2465 13.258 17.0805 13.9272 18.0326 13.9098H21.2825C21.6787 13.9098 22 13.5817 22 13.1762V10.6446C21.9991 10.24 21.6787 9.91103 21.2825 9.91016H17.9561C16.8731 9.91364 15.9983 10.8126 16 11.9204C16 12.0501 16.0128 12.1798 16.0374 12.3068Z" fill="#8A92A6"/>
<circle cx="18" cy="11.9102" r="1" fill="#8A92A6"/>
</svg>
