<svg width="24" height="25" viewBox="0 0 24 25" fill="none" xmlns="http://www.w3.org/2000/svg">
<path opacity="0.4" d="M4.723 21.1782C4.71 21.1782 4.698 21.1782 4.684 21.1772C4.369 21.1612 4.06 21.0932 3.766 20.9742C2.319 20.3862 1.621 18.7332 2.208 17.2872L9.529 4.46123C9.781 4.00523 10.163 3.62323 10.629 3.36523C11.994 2.60923 13.72 3.10623 14.475 4.47023L21.748 17.1982C21.91 17.5792 21.979 17.8892 21.996 18.2052C22.035 18.9612 21.777 19.6862 21.271 20.2472C20.765 20.8082 20.07 21.1392 19.315 21.1772L4.795 21.1782H4.723Z" fill="#8A92A6"/>
<path fill-rule="evenodd" clip-rule="evenodd" d="M11.125 10.0312C11.125 9.54925 11.518 9.15625 12 9.15625C12.482 9.15625 12.875 9.54925 12.875 10.0312V12.8593C12.875 13.3422 12.482 13.7343 12 13.7343C11.518 13.7343 11.125 13.3422 11.125 12.8593V10.0312ZM11.125 16.2804C11.125 15.7954 11.518 15.4004 12 15.4004C12.482 15.4004 12.875 15.7903 12.875 16.2694C12.875 16.7624 12.482 17.1554 12 17.1554C11.518 17.1554 11.125 16.7624 11.125 16.2804Z" fill="#8A92A6"/>
</svg>
