<svg width="24" height="25" viewBox="0 0 24 25" fill="none" xmlns="http://www.w3.org/2000/svg">
<path opacity="0.4" d="M16.191 2.01172H7.81C4.77 2.01172 3 3.79172 3 6.84172V17.1717C3 20.2717 4.77 22.0117 7.81 22.0117H16.191C19.28 22.0117 21 20.2717 21 17.1717V6.84172C21 3.79172 19.28 2.01172 16.191 2.01172Z" fill="#8A92A6"/>
<path fill-rule="evenodd" clip-rule="evenodd" d="M8.08094 6.66016V6.67016C7.64994 6.67016 7.30094 7.02016 7.30094 7.45016C7.30094 7.88016 7.64994 8.23016 8.08094 8.23016H11.0699C11.5009 8.23016 11.8509 7.88016 11.8509 7.43916C11.8509 7.01016 11.5009 6.66016 11.0699 6.66016H8.08094ZM15.9209 12.7502H8.08094C7.64994 12.7502 7.30094 12.4002 7.30094 11.9702C7.30094 11.5402 7.64994 11.1892 8.08094 11.1892H15.9209C16.3509 11.1892 16.7009 11.5402 16.7009 11.9702C16.7009 12.4002 16.3509 12.7502 15.9209 12.7502ZM15.9209 17.3202H8.08094C7.78094 17.3602 7.49094 17.2102 7.33094 16.9602C7.17094 16.7002 7.17094 16.3702 7.33094 16.1202C7.49094 15.8602 7.78094 15.7202 8.08094 15.7502H15.9209C16.3199 15.7902 16.6209 16.1302 16.6209 16.5402C16.6209 16.9392 16.3199 17.2802 15.9209 17.3202Z" fill="#8A92A6"/>
</svg>
