<svg width="24" height="25" viewBox="0 0 24 25" fill="none" xmlns="http://www.w3.org/2000/svg">
<path opacity="0.4" d="M13.3051 5.89415V6.07719C12.8144 6.06756 12.3237 6.06756 11.8331 6.06756V5.90378C11.8331 5.23905 11.2737 4.69955 10.6064 4.69955H9.63482C8.52589 4.69955 7.62305 3.81324 7.62305 2.73426C7.62305 2.33927 7.95671 2.01172 8.35906 2.01172C8.77123 2.01172 9.09508 2.33927 9.09508 2.73426C9.09508 3.02327 9.34042 3.25448 9.63482 3.25448H10.6064C12.0882 3.26412 13.2953 4.44907 13.3051 5.89415Z" fill="#8A92A6"/>
<path fill-rule="evenodd" clip-rule="evenodd" d="M15.164 6.09305C15.4791 6.09737 15.7949 6.1017 16.1119 6.10494C19.5172 6.10494 22 8.53266 22 11.8852V16.1915C22 19.5441 19.5172 21.9718 16.1119 21.9718C14.7478 22.0007 13.3837 22.0104 12.0098 22.0104C10.6359 22.0104 9.25221 22.0007 7.88813 21.9718C4.48283 21.9718 2 19.5441 2 16.1915V11.8852C2 8.53266 4.48283 6.10494 7.89794 6.10494C9.18351 6.08567 10.4985 6.06641 11.8332 6.06641C12.3238 6.06641 12.8145 6.06641 13.3052 6.07604C13.9238 6.07604 14.5425 6.08452 15.164 6.09305ZM10.8518 14.7561H9.82139V15.7773C9.82139 16.1723 9.48773 16.4998 9.08538 16.4998C8.67321 16.4998 8.34936 16.1723 8.34936 15.7773V14.7561H7.30913C6.90677 14.7561 6.57311 14.4382 6.57311 14.0336C6.57311 13.6386 6.90677 13.311 7.30913 13.311H8.34936V12.2995C8.34936 11.9045 8.67321 11.577 9.08538 11.577C9.48773 11.577 9.82139 11.9045 9.82139 12.2995V13.311H10.8518C11.2542 13.311 11.5878 13.6386 11.5878 14.0336C11.5878 14.4382 11.2542 14.7561 10.8518 14.7561ZM15.0226 13.128H15.1207C15.5231 13.128 15.8567 12.8101 15.8567 12.4055C15.8567 12.0105 15.5231 11.6829 15.1207 11.6829H15.0226C14.6104 11.6829 14.2866 12.0105 14.2866 12.4055C14.2866 12.8101 14.6104 13.128 15.0226 13.128ZM16.7007 16.442H16.7988C17.2012 16.442 17.5348 16.1241 17.5348 15.7195C17.5348 15.3245 17.2012 14.997 16.7988 14.997H16.7007C16.2885 14.997 15.9647 15.3245 15.9647 15.7195C15.9647 16.1241 16.2885 16.442 16.7007 16.442Z" fill="#8A92A6"/>
</svg>
