<svg width="24" height="25" viewBox="0 0 24 25" fill="none" xmlns="http://www.w3.org/2000/svg">
<path opacity="0.4" d="M11.9912 18.6315L5.49945 21.874C5.00921 22.1402 4.39768 21.9625 4.12348 21.4743C4.0434 21.3208 4.00106 21.1502 4 20.9768V13.7188C4 14.4383 4.40573 14.8825 5.47299 15.38L11.9912 18.6315Z" fill="#8A92A6"/>
<path fill-rule="evenodd" clip-rule="evenodd" d="M8.89526 2.01172H15.0695C17.7773 2.01172 19.9735 3.07777 20 5.80509V20.9786C19.9989 21.1491 19.9565 21.3168 19.8765 21.4672C19.7479 21.7124 19.5259 21.8944 19.2615 21.9715C18.997 22.0485 18.7128 22.014 18.4741 21.8758L11.9912 18.6332L5.47299 15.3818C4.40573 14.8843 4 14.4401 4 13.7205V5.80509C4 3.07777 6.19625 2.01172 8.89526 2.01172ZM8.22492 9.63399H15.7486C16.1822 9.63399 16.5336 9.28 16.5336 8.84333C16.5336 8.40667 16.1822 8.05268 15.7486 8.05268H8.22492C7.79137 8.05268 7.43991 8.40667 7.43991 8.84333C7.43991 9.28 7.79137 9.63399 8.22492 9.63399Z" fill="#8A92A6"/>
</svg>
