<svg width="44" height="44" viewBox="0 0 44 44" fill="none" xmlns="http://www.w3.org/2000/svg">
<path d="M0 4C0 1.79086 1.79086 0 4 0H44V44H4C1.79086 44 0 42.2091 0 40V4Z" fill="#E9671A"/>
<path fill-rule="evenodd" clip-rule="evenodd" d="M32.2737 16.8927L31.5475 15.6326C30.9332 14.5664 29.5717 14.1985 28.504 14.8103V14.8103C27.9958 15.1097 27.3893 15.1947 26.8184 15.0464C26.2474 14.8982 25.7589 14.5289 25.4605 14.0201C25.2686 13.6967 25.1654 13.3283 25.1615 12.9522V12.9522C25.1788 12.3493 24.9514 11.765 24.5309 11.3324C24.1105 10.8999 23.5329 10.656 22.9296 10.6563H21.4666C20.8757 10.6562 20.3091 10.8917 19.8922 11.3106C19.4754 11.7295 19.2426 12.2972 19.2454 12.8881V12.8881C19.2279 14.1082 18.2338 15.0881 17.0136 15.088C16.6375 15.0841 16.2691 14.9809 15.9457 14.789V14.789C14.878 14.1772 13.5165 14.545 12.9022 15.6112L12.1226 16.8927C11.509 17.9576 11.8719 19.3182 12.9342 19.9362V19.9362C13.6248 20.3349 14.0502 21.0717 14.0502 21.8691C14.0502 22.6664 13.6248 23.4033 12.9342 23.8019V23.8019C11.8732 24.4158 11.51 25.773 12.1226 26.8347V26.8347L12.8595 28.1055C13.1473 28.6249 13.6303 29.0082 14.2015 29.1705C14.7726 29.3328 15.385 29.2609 15.903 28.9705V28.9705C16.4122 28.6734 17.0189 28.592 17.5885 28.7444C18.158 28.8968 18.643 29.2704 18.9358 29.7821C19.1277 30.1055 19.2309 30.4739 19.2348 30.85V30.85C19.2348 32.0826 20.234 33.0819 21.4666 33.0819H22.9296C24.1581 33.0819 25.1557 32.0891 25.1615 30.8607V30.8607C25.1587 30.2679 25.3929 29.6985 25.8121 29.2793C26.2313 28.8602 26.8006 28.6259 27.3934 28.6288C27.7686 28.6388 28.1355 28.7416 28.4613 28.9278V28.9278C29.5262 29.5414 30.8868 29.1786 31.5048 28.1162V28.1162L32.2737 26.8347C32.5713 26.3239 32.653 25.7155 32.5006 25.1443C32.3483 24.573 31.9745 24.0861 31.4621 23.7913V23.7913C30.9496 23.4964 30.5758 23.0095 30.4235 22.4383C30.2712 21.867 30.3529 21.2586 30.6505 20.7478C30.844 20.4099 31.1242 20.1297 31.4621 19.9362V19.9362C32.5181 19.3185 32.88 17.9659 32.2737 16.9034V16.9034V16.8927Z" stroke="white" stroke-width="1.5" stroke-linecap="round" stroke-linejoin="round"/>
<ellipse cx="22.2044" cy="21.8685" rx="3.07551" ry="3.07551" stroke="white" stroke-width="1.5" stroke-linecap="round" stroke-linejoin="round"/>
</svg>
