<svg width="24" height="24" viewBox="0 0 24 24" fill="none" xmlns="http://www.w3.org/2000/svg">
<path d="M11.8241 15.2171H12.1738C14.0977 15.2171 15.73 13.985 16.3044 12.2764C16.3878 12.0276 16.1969 11.7713 15.9325 11.7713H14.8552C14.5123 11.7713 14.2353 11.4977 14.2353 11.16C14.2353 10.8213 14.5123 10.5467 14.8552 10.5467H15.8995C16.2453 10.5467 16.5253 10.2703 16.5253 9.92875C16.5253 9.58722 16.2453 9.31075 15.8995 9.31075H14.8552C14.5123 9.31075 14.2353 9.03619 14.2353 8.69849C14.2353 8.35984 14.5123 8.08528 14.8552 8.08528H15.8995C16.2453 8.08528 16.5253 7.8088 16.5253 7.46728C16.5253 7.12575 16.2453 6.84928 15.8995 6.84928H14.8552C14.5123 6.84928 14.2353 6.57472 14.2353 6.23606C14.2353 5.89837 14.5123 5.62381 14.8552 5.62381H15.9877C16.2473 5.62381 16.4333 5.3789 16.3635 5.13113C15.8491 3.32401 14.1684 2 12.1738 2H11.8241C9.42074 2 7.47266 3.92287 7.47266 6.29729V10.9198C7.47266 13.2933 9.42074 15.2171 11.8241 15.2171Z" fill="white"/>
<path opacity="0.4" d="M19.5313 9.82422C18.9966 9.82422 18.5626 10.2518 18.5626 10.7809C18.5626 14.354 15.6186 17.2612 12.0005 17.2612C8.38136 17.2612 5.43743 14.354 5.43743 10.7809C5.43743 10.2518 5.00345 9.82422 4.46872 9.82422C3.93398 9.82422 3.5 10.2518 3.5 10.7809C3.5 15.0858 6.79945 18.6398 11.0318 19.1172V21.0419C11.0318 21.57 11.4648 21.9986 12.0005 21.9986C12.5352 21.9986 12.9692 21.57 12.9692 21.0419V19.1172C17.2006 18.6398 20.5 15.0858 20.5 10.7809C20.5 10.2518 20.066 9.82422 19.5313 9.82422Z" fill="white"/>
</svg>
